<?xml version="1.0" encoding="iso-8859-1"?>
<!-- Generator: Adobe Illustrator 19.0.0, SVG Export Plug-In . SVG Version: 6.00 Build 0)  -->
<svg version="1.1" id="Layer_1" xmlns="http://www.w3.org/2000/svg" xmlns:xlink="http://www.w3.org/1999/xlink" x="0px" y="0px"
	 viewBox="0 0 512 512" style="enable-background:new 0 0 512 512;" xml:space="preserve">
<path style="fill:#777777;" d="M264.348,141.913v228.174h180.87c10.74,0,19.478,8.739,19.478,19.478v55.652
	c0,4.61-3.738,8.348-8.348,8.348S448,449.828,448,445.217v-55.652c0-1.534-1.249-2.783-2.783-2.783h-180.87v58.435
	c0,4.61-3.738,8.348-8.348,8.348s-8.348-3.738-8.348-8.348v-58.435H66.783c-1.534,0-2.783,1.249-2.783,2.783v55.652
	c0,4.61-3.738,8.348-8.348,8.348s-8.348-3.738-8.348-8.348v-55.652c0-10.74,8.739-19.478,19.478-19.478h180.87V141.913H66.783
	c-10.74,0-19.478-8.739-19.478-19.478V66.783c0-4.61,3.738-8.348,8.348-8.348S64,62.172,64,66.783v55.652
	c0,1.534,1.249,2.783,2.783,2.783h180.87V66.783c0-4.61,3.738-8.348,8.348-8.348s8.348,3.738,8.348,8.348v58.435h180.87
	c1.534,0,2.783-1.249,2.783-2.783V66.783c0-4.61,3.738-8.348,8.348-8.348s8.348,3.738,8.348,8.348v55.652
	c0,10.74-8.738,19.478-19.478,19.478H264.348z"/>
<path style="fill:#768900;" d="M303.304,89.043h-94.609c-6.147,0-11.13-4.983-11.13-11.13V11.13c0-6.147,4.983-11.13,11.13-11.13
	h94.609c6.147,0,11.13,4.983,11.13,11.13v66.783C314.435,84.06,309.452,89.043,303.304,89.043z"/>
<path style="fill:#B6E152;" d="M100.174,89.043H11.13C4.983,89.043,0,84.06,0,77.913V11.13C0,4.983,4.983,0,11.13,0h89.043
	c6.147,0,11.13,4.983,11.13,11.13v66.783C111.304,84.06,106.321,89.043,100.174,89.043z M512,77.913V11.13
	C512,4.983,507.017,0,500.87,0h-89.043c-6.147,0-11.13,4.983-11.13,11.13v66.783c0,6.147,4.983,11.13,11.13,11.13h89.043
	C507.017,89.043,512,84.06,512,77.913z"/>
<path style="fill:#56889B;" d="M208.696,422.957h94.609c6.147,0,11.13,4.983,11.13,11.13v66.783c0,6.147-4.983,11.13-11.13,11.13
	h-94.609c-6.147,0-11.13-4.983-11.13-11.13v-66.783C197.565,427.94,202.548,422.957,208.696,422.957z"/>
<path style="fill:#98C7E5;" d="M411.826,422.957h89.043c6.147,0,11.13,4.983,11.13,11.13v66.783c0,6.147-4.983,11.13-11.13,11.13
	h-89.043c-6.147,0-11.13-4.983-11.13-11.13v-66.783C400.696,427.94,405.679,422.957,411.826,422.957z M0,434.087v66.783
	C0,507.017,4.983,512,11.13,512h89.043c6.147,0,11.13-4.983,11.13-11.13v-66.783c0-6.147-4.983-11.13-11.13-11.13H11.13
	C4.983,422.957,0,427.94,0,434.087z"/>
<path style="fill:#FFBC00;" d="M333.913,322.783H178.087c-12.295,0-22.261-9.966-22.261-22.261v-89.043
	c0-12.295,9.966-22.261,22.261-22.261h155.826c12.295,0,22.261,9.966,22.261,22.261v89.043
	C356.174,312.816,346.208,322.783,333.913,322.783z"/>
<path style="fill:#E0A000;" d="M308.87,239.304c0,4.61-3.738,8.348-8.348,8.348h-89.043c-4.61,0-8.348-3.738-8.348-8.348
	s3.738-8.348,8.348-8.348h89.043C305.132,230.957,308.87,234.694,308.87,239.304z M289.391,264.348h-66.783
	c-4.61,0-8.348,3.738-8.348,8.348s3.738,8.348,8.348,8.348h66.783c4.61,0,8.348-3.738,8.348-8.348S294.002,264.348,289.391,264.348z
	"/>
<g>
</g>
<g>
</g>
<g>
</g>
<g>
</g>
<g>
</g>
<g>
</g>
<g>
</g>
<g>
</g>
<g>
</g>
<g>
</g>
<g>
</g>
<g>
</g>
<g>
</g>
<g>
</g>
<g>
</g>
</svg>
