<?xml version="1.0" encoding="iso-8859-1"?>
<!-- Generator: Adobe Illustrator 18.1.1, SVG Export Plug-In . SVG Version: 6.00 Build 0)  -->
<svg version="1.1" id="Capa_1" xmlns="http://www.w3.org/2000/svg" xmlns:xlink="http://www.w3.org/1999/xlink" x="0px" y="0px"
	 viewBox="0 0 24.498 24.498" style="enable-background:new 0 0 24.498 24.498;" xml:space="preserve">
<g>
	<path style="fill:#030104;" d="M23.29,17.333c-0.259,0-0.498,0.083-0.694,0.222l-3.923-3.923c0.453-0.231,0.766-0.698,0.766-1.241
		c0-0.773-0.626-1.401-1.4-1.401c-0.239,0-0.462,0.066-0.658,0.173l-2.953-2.954c0.288-0.364,0.469-0.82,0.469-1.322
		c0-1.183-0.959-2.142-2.143-2.142c-1.182,0-2.142,0.959-2.142,2.142c0,0.502,0.18,0.958,0.47,1.322L8.05,11.242
		c-0.227-0.158-0.501-0.252-0.799-0.252c-0.773,0-1.399,0.628-1.399,1.401c0,0.406,0.176,0.77,0.452,1.025l-4.257,4.259
		c-0.217-0.211-0.512-0.342-0.839-0.342C0.541,17.333,0,17.875,0,18.542s0.541,1.209,1.208,1.209c0.668,0,1.209-0.542,1.209-1.209
		c0-0.159-0.033-0.311-0.088-0.449L5.622,14.8l-1.025,2.637c-0.149-0.065-0.313-0.104-0.486-0.104c-0.668,0-1.209,0.542-1.209,1.209
		s0.541,1.209,1.209,1.209c0.667,0,1.209-0.542,1.209-1.209c0-0.309-0.119-0.588-0.311-0.801l1.601-4.113
		c0.193,0.101,0.409,0.163,0.642,0.163c0.774,0,1.4-0.627,1.4-1.4c0-0.298-0.094-0.571-0.252-0.799l3.032-3.032
		c0.102,0.08,0.209,0.15,0.324,0.211l-0.874,2.246c-0.087-0.017-0.177-0.027-0.27-0.027c-0.772,0-1.399,0.628-1.399,1.401
		c0,0.628,0.416,1.152,0.984,1.33l-1.869,3.846c-0.199-0.145-0.442-0.233-0.709-0.233c-0.668,0-1.209,0.542-1.209,1.209
		s0.541,1.209,1.209,1.209c0.667,0,1.208-0.542,1.208-1.209c0-0.206-0.056-0.397-0.147-0.566l1.617-3.325l0.336,2.694
		c-0.037-0.004-0.073-0.012-0.111-0.012c-0.668,0-1.209,0.542-1.209,1.209s0.541,1.209,1.209,1.209c0.667,0,1.208-0.542,1.208-1.209
		c0-0.435-0.231-0.813-0.576-1.025l-0.465-3.733c0.736-0.04,1.324-0.645,1.324-1.393c0-0.506-0.27-0.944-0.671-1.19l0.875-2.248
		c0.172,0.045,0.351,0.076,0.537,0.076c0.188,0,0.365-0.031,0.539-0.076l0.836,2.149c-0.5,0.214-0.852,0.711-0.852,1.289
		c0,0.73,0.561,1.322,1.273,1.388l-0.711,3.568c-0.602,0.069-1.071,0.575-1.071,1.195c0,0.667,0.542,1.209,1.209,1.209
		c0.668,0,1.209-0.542,1.209-1.209c0-0.542-0.358-0.995-0.851-1.148l0.548-2.751l1.225,2.977c-0.266,0.221-0.438,0.551-0.438,0.923
		c0,0.667,0.541,1.209,1.209,1.209c0.667,0,1.208-0.542,1.208-1.209s-0.541-1.209-1.208-1.209c-0.116,0-0.226,0.021-0.332,0.052
		l-1.502-3.649c0.593-0.163,1.031-0.7,1.031-1.345c0-0.773-0.626-1.401-1.399-1.401c-0.021,0-0.039,0.006-0.059,0.007l-0.865-2.228
		c0.114-0.061,0.223-0.131,0.324-0.211l2.912,2.912c-0.215,0.247-0.351,0.566-0.351,0.919c0,0.773,0.627,1.4,1.399,1.4
		c0.059,0,0.115-0.011,0.171-0.018l1.475,3.79c-0.304,0.22-0.504,0.575-0.504,0.979c0,0.667,0.541,1.209,1.209,1.209
		c0.667,0,1.208-0.542,1.208-1.209s-0.541-1.209-1.208-1.209c-0.087,0-0.171,0.01-0.253,0.027l-0.996-2.561l3.119,3.119
		c-0.11,0.183-0.178,0.395-0.178,0.623c0,0.667,0.542,1.209,1.209,1.209c0.668,0,1.209-0.542,1.209-1.209
		S23.958,17.333,23.29,17.333z"/>
</g>
<g>
</g>
<g>
</g>
<g>
</g>
<g>
</g>
<g>
</g>
<g>
</g>
<g>
</g>
<g>
</g>
<g>
</g>
<g>
</g>
<g>
</g>
<g>
</g>
<g>
</g>
<g>
</g>
<g>
</g>
</svg>
